<svg
aria-hidden="true"
fill="none"
role="img"
viewBox="0 0 32 32"
xmlns="http://www.w3.org/2000/svg">
<title>Wealthsimple</title>
<circle cx="16.0001" cy="16.0001" r="12.4444" fill="#FCFCFC"></circle>
<path
  d="M30.7406 9.81384C29.901 7.88544 28.7561 6.18616 27.2868 4.71599C25.8175 3.24582 24.1193 2.10024 22.192 1.26014C20.2648 0.420048 18.2039 0 16.0095 0C13.8151 0 11.7352 0.420048 9.80799 1.26014C7.88074 2.10024 6.18247 3.24582 4.71318 4.71599C3.24389 6.18616 2.09899 7.88544 1.25939 9.81384C0.419797 11.7422 0 13.8234 0 16.0191C0 18.2148 0.419797 20.2768 1.25939 22.2053C2.09899 24.1337 3.24389 25.8329 4.71318 27.3031C6.18247 28.7733 7.88074 29.9379 9.80799 30.7589C11.7352 31.58 13.8151 32 16.0095 32C18.2039 32 20.2648 31.58 22.192 30.7589C24.1193 29.9379 25.8175 28.7733 27.2868 27.3031C28.7561 25.8329 29.901 24.1337 30.7406 22.2053C31.5802 20.2768 32 18.2148 32 16.0191C32 13.8234 31.5802 11.7422 30.7406 9.81384ZM27.2868 10.7494C26.7907 10.9785 26.3518 11.3986 25.932 12.0477C25.5122 12.6969 25.0161 13.6325 24.4246 14.8735L20.1694 24.0764H19.9213L16.4484 15.79L12.2886 24.0764H12.0215L7.4037 13.8043C7.00298 12.8878 6.58318 12.1814 6.18247 11.7041C5.78175 11.2267 5.32379 10.9021 4.80859 10.7494V10.4821H11.7734V10.7494C11.5063 10.8449 11.3154 10.9976 11.201 11.1695C11.0865 11.3413 11.0101 11.5322 11.0101 11.7422C11.0101 11.8377 11.0292 11.9523 11.0483 12.0859C11.0865 12.2005 11.1246 12.3341 11.1819 12.4869L14.0823 19.3031L16.124 15.2745L15.0555 12.7351C14.7501 11.9523 14.4639 11.4558 14.1777 11.2458C13.9106 11.0167 13.5671 10.864 13.1473 10.7876V10.5203H20.3029V10.7876C19.5969 10.8831 19.2343 11.2649 19.2343 11.9141C19.2343 12.0477 19.2725 12.2578 19.3488 12.5442C19.4252 12.8115 19.5397 13.0979 19.6541 13.3461L21.9439 18.9976L22.4973 17.8329C22.9362 16.9165 23.2987 16.0764 23.5277 15.2936C23.7567 14.5107 23.8903 13.7852 23.8903 13.0979C23.8903 12.4296 23.7567 11.9141 23.5086 11.5322C23.2606 11.1695 22.8599 10.9021 22.3256 10.7685V10.5012H27.2487V10.7494H27.2868Z"
  fill="#32302F"></path>
</svg>